<svg xmlns="http://www.w3.org/2000/svg" viewBox="0 0 151.53 107.1"><defs><style>.cls-1{isolation:isolate;}.cls-2{fill:#ddd;}.cls-3,.cls-8{fill:#a5b7c6;}.cls-4{fill:#70163c;}.cls-5{fill:#ffd4f4;}.cls-6{fill:#fff;}.cls-7{fill:#92a8bb;}.cls-8{opacity:0.5;mix-blend-mode:multiply;}.cls-9{fill:#c4eeff;}</style></defs><g class="cls-1"><g id="OBJECTS"><path class="cls-2" d="M630.55,295.92l0,0,0-.07c-.86-1-1.91-1.8-2.81-2.76-1.73-1.85-1.15-3.45-.46-5.58a6,6,0,0,0-1.6-6.32c-2.05-2-4.94-2.48-7.71-2.17-3.55.4-7.25,2.66-10.88,2-3.35-.64-4.42-4.11-6.3-6.48a9.53,9.53,0,0,0-6.1-3.46c-5-.77-9.7,1.66-13.08,5.21-6.45,6.81-8.28,17.6-4,26,5.07,10,17.75,13.7,27.69,8.83,2.47-1.22,4.29-1.75,7.08-1.15a45.46,45.46,0,0,0,5.18,1,16.14,16.14,0,0,0,9.35-1.66C631.3,306.72,633.85,300.37,630.55,295.92Z" transform="translate(-480.52 -247.07)"/><path class="cls-3" d="M595,292.71c-2-11.54-6.5-23.1-14.86-31.55-7.63-7.72-18.11-12.28-28.8-13.64a61.13,61.13,0,0,0-31,4.39,45,45,0,0,0-23.11,22.18c-5.42,11.1-7.74,23.63-5.5,35.84,1.8,9.74,5.68,19,12.85,26,14.7,14.37,38.19,17.79,57.35,11.69,9.14-2.92,17.64-8.22,23.57-15.84,6.45-8.27,9.63-19.24,10.07-29.62A48.31,48.31,0,0,0,595,292.71Z" transform="translate(-480.52 -247.07)"/><path class="cls-4" d="M526.66,294.71a4.69,4.69,0,0,0,3-1.24,4.77,4.77,0,0,0,1.24-3l-.15-1.13a4.32,4.32,0,0,0-1.09-1.87l-.86-.66a4.24,4.24,0,0,0-2.14-.58,4.77,4.77,0,0,0-3,1.24,3.24,3.24,0,0,0-.88,1.37,3.15,3.15,0,0,0-.36,1.63l.15,1.13a4.17,4.17,0,0,0,1.09,1.87l.86.66a4.12,4.12,0,0,0,2.14.58Z" transform="translate(-480.52 -247.07)"/><path class="cls-4" d="M559.85,294.71a4.69,4.69,0,0,0,3-1.24,4.77,4.77,0,0,0,1.24-3l-.15-1.13a4.32,4.32,0,0,0-1.09-1.87l-.86-.66a4.24,4.24,0,0,0-2.14-.58,4.77,4.77,0,0,0-3,1.24,4.69,4.69,0,0,0-1.24,3l.15,1.13a4.17,4.17,0,0,0,1.09,1.87l.86.66a4.12,4.12,0,0,0,2.14.58Z" transform="translate(-480.52 -247.07)"/><path class="cls-5" d="M517.23,308.92a4.92,4.92,0,0,0,2.56-.57,6,6,0,0,0,3.52-3.51,5.16,5.16,0,0,0,.57-2.57l-.24-1.77a6.56,6.56,0,0,0-1.71-2.93l-1.34-1a6.72,6.72,0,0,0-3.36-.91,5.09,5.09,0,0,0-2.56.57,5,5,0,0,0-2.14,1.38,5,5,0,0,0-1.38,2.14,4.92,4.92,0,0,0-.57,2.56l.24,1.77a6.54,6.54,0,0,0,1.71,2.94l1.34,1a6.61,6.61,0,0,0,3.36.9Z" transform="translate(-480.52 -247.07)"/><path class="cls-5" d="M569.28,308.92a4.92,4.92,0,0,0,2.56-.57A5.08,5.08,0,0,0,574,307a5,5,0,0,0,1.37-2.14,5.06,5.06,0,0,0,.58-2.57l-.24-1.77a6.75,6.75,0,0,0-1.71-2.93l-1.35-1a6.66,6.66,0,0,0-3.35-.91,5.16,5.16,0,0,0-2.57.57,5.07,5.07,0,0,0-2.14,1.38,5,5,0,0,0-1.37,2.14,4.92,4.92,0,0,0-.57,2.56c.07.59.15,1.18.23,1.77a6.72,6.72,0,0,0,1.71,2.94l1.35,1a6.61,6.61,0,0,0,3.36.9Z" transform="translate(-480.52 -247.07)"/><path class="cls-4" d="M528.27,300c-.77,1.1.83,3.16,1.47,4.05a15,15,0,0,0,3.53,3.54,16.76,16.76,0,0,0,9.52,3c7,.11,14.08-3.88,16.85-10.41.52-1.23-1.22-2.32-1.83-1.07A16.52,16.52,0,0,1,543,308.5a15.37,15.37,0,0,1-8.45-2.35,14,14,0,0,1-3.48-3.17c-.67-.86-1.36-3-2.51-3.14a.28.28,0,0,0-.29.12Z" transform="translate(-480.52 -247.07)"/><path class="cls-6" d="M543.25,297.66a2.22,2.22,0,0,0,1.14-.25,2.25,2.25,0,0,0,1-.61,3.25,3.25,0,0,0,.86-2.08l-.1-.79a3,3,0,0,0-.76-1.3l-.6-.46a2.87,2.87,0,0,0-1.49-.4,2.21,2.21,0,0,0-1.13.25,2.14,2.14,0,0,0-1,.61,2.19,2.19,0,0,0-.61.95,2.23,2.23,0,0,0-.26,1.14l.11.78a2.91,2.91,0,0,0,.76,1.3l.59.46a2.9,2.9,0,0,0,1.49.4Z" transform="translate(-480.52 -247.07)"/><path class="cls-7" d="M516.78,259.17c-4.24.07-7.25,5-7.6,8.86-.4,4.31,3.49,7.83,7.69,7.55,4.56-.3,7.82-4.08,8.51-8.42.64-4-1-8.91-5.76-9a1.54,1.54,0,0,0,0,3.07c3.08,0,3.15,4.1,2.58,6.23-.68,2.62-2.77,4.95-5.62,5.05-3.14.11-4.9-2.64-4.14-5.49a7.89,7.89,0,0,1,4.65-5.56c1.18-.46,1.12-2.36-.31-2.34Z" transform="translate(-480.52 -247.07)"/><path class="cls-7" d="M573.33,266c-2.9-1.72-5.34,3.4-5.54,5.54-.33,3.55,2.13,7.54,5.85,8,8.61,1,10.67-14.38,1.92-14.23-2,0-2,3.13,0,3.08,4.92-.11,2.41,10.54-2.65,7.73a4.91,4.91,0,0,1-2-5.13,5.34,5.34,0,0,1,1.23-2.59c.51-.57,1.12-.91,1.44-1.63a.56.56,0,0,0-.2-.74Z" transform="translate(-480.52 -247.07)"/><path class="cls-7" d="M546.1,275.61c-1.58-.5-2.48,1.75-2.24,3A3.11,3.11,0,0,0,547,281a3.07,3.07,0,0,0,3-2.46c.26-1.39-.62-4-2.5-3.43a1.38,1.38,0,0,0-1,1.3,1.55,1.55,0,0,0,.31,1,1.27,1.27,0,0,0,.21.25c.12.12.13.13,0,0l.06.11c0-.14,0-.13,0,0s0,.18,0,.07,0-.07,0,.09,0,.18,0,0l0,.13c.06-.14,0-.13,0,0,.08-.1.08-.11,0,0s-.07.06,0,0c-.15.08-.16.08,0,0l-.13,0c.16,0,.15,0,0,0h-.09c.1,0,.08,0-.08,0h0l-.11-.07c.08.21,0-.22.06.07,0,.1-.08-.29-.09-.35,0,.24,0-.1,0-.17,0-.35-.06.14,0-.19a2.24,2.24,0,0,0,.08-1.09.87.87,0,0,0-.61-.62Z" transform="translate(-480.52 -247.07)"/><path class="cls-7" d="M570.62,318.46c-3.53-2.06-7.09,2.33-7.78,5.42a7,7,0,0,0,5.79,8.5,8.15,8.15,0,0,0,8.82-6.11,7.23,7.23,0,0,0-5.23-9c-1.91-.45-2.73,2.5-.81,2.95,5.63,1.3,3.07,9.74-2.18,9.15a4.12,4.12,0,0,1-3.61-5,6,6,0,0,1,4.88-5,.53.53,0,0,0,.12-1Z" transform="translate(-480.52 -247.07)"/><path class="cls-7" d="M503.5,303.82c-1.06-1.76-3.24.05-4,1.14a12.8,12.8,0,0,0-2.23,8c.26,4.64,3.61,10.92,8.64,11.8,6,1.07,7.92-6.07,7.41-10.62s-3-12.2-8.78-11.69c-1.94.17-1.95,3.21,0,3,3.88-.36,5.51,6.08,5.81,9a9.2,9.2,0,0,1-.77,5.55c-1.25,2.09-3.26,2.11-5.06.73a11.16,11.16,0,0,1-4.24-9.41c.08-1.85.57-4.23,1.87-5.63.37-.4,1.86-1.07,1.37-1.87Z" transform="translate(-480.52 -247.07)"/><path class="cls-7" d="M590.21,288.66c-5.38.32-7,8.52-6.38,12.72a10.87,10.87,0,0,0,3.66,7.05c1.74,1.39,4.74,2.44,6.49.55a1.28,1.28,0,0,0-.89-2.16c-1.9,0-3.18,0-4.48-1.6a8.81,8.81,0,0,1-1.83-5.1c-.18-3.36.89-7.65,4-9.41a1.11,1.11,0,0,0-.56-2Z" transform="translate(-480.52 -247.07)"/><path class="cls-8" d="M595,292.71a67.39,67.39,0,0,0-7.32-21.46,61.35,61.35,0,0,1,2.66,10.64c1.39,9.13,1.62,20.95-1.19,29.71-2.45,7.68-5.74,13.93-11.62,19.62-3.25,3.14-9.12,6.15-13.86,6.55-7.28.62-10.24-8.7-12.35-14-3.47-8.71-7.31-15.18-18.45-15-7,.1-13.16,4.51-20.18,4.65-4.13.08-8.42-1.21-12.49-1.83-3-.46-6-4.76-9-5.29.13,1.22.31,2.45.53,3.67,1.8,9.74,5.68,19,12.85,26,14.7,14.37,38.19,17.79,57.35,11.69,9.14-2.92,17.64-8.22,23.57-15.84,6.45-8.27,9.63-19.24,10.07-29.62A48.31,48.31,0,0,0,595,292.71Z" transform="translate(-480.52 -247.07)"/><path class="cls-2" d="M548.14,336.83a15.28,15.28,0,0,1-2.73-8.26c-.15-2.8-.28-5.52-1.44-8.12a13.8,13.8,0,0,0-13.06-8.39,15.07,15.07,0,0,0-7.45,2.34,13.61,13.61,0,0,0-2.9,2.45c-1.11,1.26-1.85,3.51-3.59,3.95-1.93.48-4.4-.29-6.28-.77s-3.89-1.14-5.85-1.67a21.73,21.73,0,0,0-10-.8,10.19,10.19,0,0,0-6.78,4.68,7.71,7.71,0,0,0-1.08,3.29c-.14,1.77,1.31,4.16.29,5.66-.75,1.09-2.16,1.66-3.17,2.5a10.62,10.62,0,0,0-2.95,3.67,6.11,6.11,0,0,0,.55,6.47c4.41,5.53,12.43,1.63,18.14,2.09,7,.57,13,5,19.58,7a27.74,27.74,0,0,0,20.89-1.9C544.81,348.73,552.06,342.51,548.14,336.83Z" transform="translate(-480.52 -247.07)"/><path class="cls-9" d="M519.41,323.6a4.82,4.82,0,0,1-1,5.46,4.69,4.69,0,0,1-2.27,1.07,7.51,7.51,0,0,0-2.32.31.84.84,0,0,0-.17,1.3c1.69,1.74,5.26,0,6.61-1.46a6.64,6.64,0,0,0,1-7.46c-.51-1-2.25-.31-1.85.78Z" transform="translate(-480.52 -247.07)"/><path class="cls-9" d="M493.27,331.21c2-.45,4.79-.32,5.86,1.82a2.2,2.2,0,0,1-.61,2.88c-.67.39-1.41,0-2,.52a.79.79,0,0,0-.36.88l.07.18a1.08,1.08,0,0,0,.76.76,4.07,4.07,0,0,0,4.3-5.66c-1.24-3.26-5.45-4.26-8.46-3.06a.87.87,0,0,0,.47,1.68Z" transform="translate(-480.52 -247.07)"/><path class="cls-9" d="M542.21,332.56c-2.41-.84-5.92,1.09-7.55,2.79-1.48,1.54-3.21,4.93-1.44,6.79a.76.76,0,0,0,1.26-.33c.31-1,0-2,.34-3a6.24,6.24,0,0,1,2.07-3c1.61-1.34,3.89-1.51,5.43-2.83a.26.26,0,0,0-.11-.42Z" transform="translate(-480.52 -247.07)"/><path class="cls-9" d="M605.34,282.92c-5.94-1-11.66,9.41-6.51,13.32,1,.73,2.14-.85,1.28-1.66-2-1.89-1.05-4.9.28-6.91s3.32-2.87,5-4.39a.21.21,0,0,0-.09-.36Z" transform="translate(-480.52 -247.07)"/><path class="cls-9" d="M624.9,291.34c-.69-1.65-3.42-1.06-4.81-.68a10.08,10.08,0,0,0-5.34,3.58c-1.42,1.85-4.27,9.78.71,8.79,1.12-.23.82-1.92-.26-1.95s0-3.31.25-3.83a8.25,8.25,0,0,1,2.72-3.41,8.84,8.84,0,0,1,3.65-1.48c1-.17,2.28.19,3-.68a.36.36,0,0,0,.09-.34Z" transform="translate(-480.52 -247.07)"/><path class="cls-9" d="M608.67,307.69a3.91,3.91,0,0,0-.75-3.5,4.33,4.33,0,0,0-1.29-1.08,8.29,8.29,0,0,0-1.51-.84.92.92,0,0,0-1.14.87c-.13,1.1,1,1.45,1.78,1.91a2.38,2.38,0,0,1,1,2.38c-.08,1.11,1.6,1.28,1.9.26Z" transform="translate(-480.52 -247.07)"/><path class="cls-6" d="M539.83,257.05c2.59.24,5.26-.46,7.89-.31a21,21,0,0,1,4.1.67c1.25.32,2.42,1,3.72.84a1.78,1.78,0,0,0,1.23-3c-1.85-2.12-6.39-2.28-9-2.27-2.86,0-6.37.4-8.59,2.36-.7.62-.08,1.62.7,1.69Z" transform="translate(-480.52 -247.07)"/><path class="cls-6" d="M559.94,257.25a1.67,1.67,0,0,0,.47,1.05c.17.22-.15-.23.09.12a3.1,3.1,0,0,0,.47.55l-.44-.77a2.11,2.11,0,0,0,2.15,1.56,1.87,1.87,0,0,0,1.68-1.13,1.83,1.83,0,0,0-.38-2,2.13,2.13,0,0,0-2.66-.38l.88-.24a3.8,3.8,0,0,0-.89.11c-.31.09.21-.07-.41.08a1.15,1.15,0,0,0-1,1.05Z" transform="translate(-480.52 -247.07)"/></g></g></svg>